{"asset":{"version":"2.0","generator":"babylon.js glTF exporter for Autodesk MAYA 2023.3 v20230608.5"},"scene":0,"scenes":[{"nodes":[0]}],"nodes":[{"children":[1,2,5],"name":"TechNL_Map_TRI"},{"mesh":0,"name":"techNL_map_land"},{"children":[3,4],"mesh":1,"name":"techNL_map_NFLD"},{"name":"transform5"},{"name":"transform6"},{"children":[6,7,8,9,10,11,12],"name":"techNL_map_ocean"},{"mesh":2,"name":"Layer_01"},{"mesh":3,"name":"Layer_02"},{"mesh":4,"name":"Layer_03"},{"mesh":5,"name":"Layer_04"},{"mesh":6,"name":"Layer_05"},{"mesh":7,"name":"Layer_06"},{"mesh":8,"name":"Layer_07"}],"meshes":[{"primitives":[{"attributes":{"POSITION":1,"TANGENT":2,"NORMAL":3,"TEXCOORD_0":4},"indices":0,"material":0}],"name":"techNL_map_land"},{"primitives":[{"attributes":{"POSITION":6,"TANGENT":7,"NORMAL":8,"TEXCOORD_0":9},"indices":5,"material":1}],"name":"techNL_map_NFLD"},{"primitives":[{"attributes":{"POSITION":11,"TANGENT":12,"NORMAL":13,"TEXCOORD_0":14},"indices":10,"material":2}],"name":"Layer_01"},{"primitives":[{"attributes":{"POSITION":16,"TANGENT":17,"NORMAL":18,"TEXCOORD_0":19},"indices":15,"material":2}],"name":"Layer_02"},{"primitives":[{"attributes":{"POSITION":21,"TANGENT":22,"NORMAL":23,"TEXCOORD_0":24},"indices":20,"material":2}],"name":"Layer_03"},{"primitives":[{"attributes":{"POSITION":26,"TANGENT":27,"NORMAL":28,"TEXCOORD_0":29},"indices":25,"material":2}],"name":"Layer_04"},{"primitives":[{"attributes":{"POSITION":31,"TANGENT":32,"NORMAL":33,"TEXCOORD_0":34},"indices":30,"material":2}],"name":"Layer_05"},{"primitives":[{"attributes":{"POSITION":36,"TANGENT":37,"NORMAL":38,"TEXCOORD_0":39},"indices":35,"material":2}],"name":"Layer_06"},{"primitives":[{"attributes":{"POSITION":41,"TANGENT":42,"NORMAL":43,"TEXCOORD_0":44},"indices":40,"material":2}],"name":"Layer_07"}],"accessors":[{"bufferView":0,"componentType":5123,"count":100695,"type":"SCALAR","name":"accessorIndices"},{"bufferView":1,"componentType":5126,"count":37212,"max":[0.6843769,0.2882257,0.03175014],"min":[-0.7078657,-0.421892762,0.0285749044],"type":"VEC3","name":"accessorPositions"},{"bufferView":2,"componentType":5126,"count":37212,"type":"VEC4","name":"accessorTangents"},{"bufferView":1,"byteOffset":446544,"componentType":5126,"count":37212,"type":"VEC3","name":"accessorNormals"},{"bufferView":3,"componentType":5126,"count":37212,"type":"VEC2","name":"accessorUVs"},{"bufferView":0,"byteOffset":201392,"componentType":5123,"count":16302,"type":"SCALAR","name":"accessorIndices"},{"bufferView":1,"byteOffset":893088,"componentType":5126,"count":6868,"max":[-0.2666631,0.0854697,0.03492504],"min":[-0.332621336,-0.0117949294,0.0317499377],"type":"VEC3","name":"accessorPositions"},{"bufferView":2,"byteOffset":595392,"componentType":5126,"count":6868,"type":"VEC4","name":"accessorTangents"},{"bufferView":1,"byteOffset":975504,"componentType":5126,"count":6868,"type":"VEC3","name":"accessorNormals"},{"bufferView":3,"byteOffset":297696,"componentType":5126,"count":6868,"type":"VEC2","name":"accessorUVs"},{"bufferView":0,"byteOffset":233996,"componentType":5123,"count":1902,"type":"SCALAR","name":"accessorIndices"},{"bufferView":1,"byteOffset":1057920,"componentType":5126,"count":713,"max":[0.833946645,0.5658249,0.00317499926],"min":[-0.835099459,-0.567746639,-2.38418574E-09],"type":"VEC3","name":"accessorPositions"},{"bufferView":2,"byteOffset":705280,"componentType":5126,"count":713,"type":"VEC4","name":"accessorTangents"},{"bufferView":1,"byteOffset":1066476,"componentType":5126,"count":713,"type":"VEC3","name":"accessorNormals"},{"bufferView":3,"byteOffset":352640,"componentType":5126,"count":713,"type":"VEC2","name":"accessorUVs"},{"bufferView":0,"byteOffset":237800,"componentType":5123,"count":4245,"type":"SCALAR","name":"accessorIndices"},{"bufferView":1,"byteOffset":1075032,"componentType":5126,"count":1513,"max":[0.854148567,0.588021755,0.00635000225],"min":[-0.855602,-0.5879164,0.00317500113],"type":"VEC3","name":"accessorPositions"},{"bufferView":2,"byteOffset":716688,"componentType":5126,"count":1513,"type":"VEC4","name":"accessorTangents"},{"bufferView":1,"byteOffset":1093188,"componentType":5126,"count":1513,"type":"VEC3","name":"accessorNormals"},{"bufferView":3,"byteOffset":358344,"componentType":5126,"count":1513,"type":"VEC2","name":"accessorUVs"},{"bufferView":0,"byteOffset":246292,"componentType":5123,"count":3567,"type":"SCALAR","name":"accessorIndices"},{"bufferView":1,"byteOffset":1111344,"componentType":5126,"count":1289,"max":[0.852899849,0.5876572,0.009525001],"min":[-0.8564303,-0.5879919,0.00634999853],"type":"VEC3","name":"accessorPositions"},{"bufferView":2,"byteOffset":740896,"componentType":5126,"count":1289,"type":"VEC4","name":"accessorTangents"},{"bufferView":1,"byteOffset":1126812,"componentType":5126,"count":1289,"type":"VEC3","name":"accessorNormals"},{"bufferView":3,"byteOffset":370448,"componentType":5126,"count":1289,"type":"VEC2","name":"accessorUVs"},{"bufferView":0,"byteOffset":253428,"componentType":5123,"count":3846,"type":"SCALAR","name":"accessorIndices"},{"bufferView":1,"byteOffset":1142280,"componentType":5126,"count":1390,"max":[0.8557179,0.590682447,0.0127000008],"min":[-0.85679394,-0.5903722,0.009544088],"type":"VEC3","name":"accessorPositions"},{"bufferView":2,"byteOffset":761520,"componentType":5126,"count":1390,"type":"VEC4","name":"accessorTangents"},{"bufferView":1,"byteOffset":1158960,"componentType":5126,"count":1390,"type":"VEC3","name":"accessorNormals"},{"bufferView":3,"byteOffset":380760,"componentType":5126,"count":1390,"type":"VEC2","name":"accessorUVs"},{"bufferView":0,"byteOffset":261120,"componentType":5123,"count":3720,"type":"SCALAR","name":"accessorIndices"},{"bufferView":1,"byteOffset":1175640,"componentType":5126,"count":1372,"max":[0.8294793,0.5613426,0.0158749949],"min":[-0.83061713,-0.5633168,0.012518825],"type":"VEC3","name":"accessorPositions"},{"bufferView":2,"byteOffset":783760,"componentType":5126,"count":1372,"type":"VEC4","name":"accessorTangents"},{"bufferView":1,"byteOffset":1192104,"componentType":5126,"count":1372,"type":"VEC3","name":"accessorNormals"},{"bufferView":3,"byteOffset":391880,"componentType":5126,"count":1372,"type":"VEC2","name":"accessorUVs"},{"bufferView":0,"byteOffset":268560,"componentType":5123,"count":3630,"type":"SCALAR","name":"accessorIndices"},{"bufferView":1,"byteOffset":1208568,"componentType":5126,"count":1327,"max":[0.8496234,0.5815546,0.0191290677],"min":[-0.8508267,-0.5832866,0.0158749986],"type":"VEC3","name":"accessorPositions"},{"bufferView":2,"byteOffset":805712,"componentType":5126,"count":1327,"type":"VEC4","name":"accessorTangents"},{"bufferView":1,"byteOffset":1224492,"componentType":5126,"count":1327,"type":"VEC3","name":"accessorNormals"},{"bufferView":3,"byteOffset":402856,"componentType":5126,"count":1327,"type":"VEC2","name":"accessorUVs"},{"bufferView":0,"byteOffset":275820,"componentType":5123,"count":4359,"type":"SCALAR","name":"accessorIndices"},{"bufferView":1,"byteOffset":1240416,"componentType":5126,"count":1565,"max":[0.8599844,0.591324,0.02268834],"min":[-0.858470261,-0.590840459,0.0190499946],"type":"VEC3","name":"accessorPositions"},{"bufferView":2,"byteOffset":826944,"componentType":5126,"count":1565,"type":"VEC4","name":"accessorTangents"},{"bufferView":1,"byteOffset":1259196,"componentType":5126,"count":1565,"type":"VEC3","name":"accessorNormals"},{"bufferView":3,"byteOffset":413472,"componentType":5126,"count":1565,"type":"VEC2","name":"accessorUVs"}],"bufferViews":[{"buffer":0,"byteLength":284540,"name":"bufferViewScalar"},{"buffer":0,"byteOffset":284540,"byteLength":1277976,"byteStride":12,"name":"bufferViewFloatVec3"},{"buffer":0,"byteOffset":1562516,"byteLength":851984,"byteStride":16,"name":"bufferViewFloatVec4"},{"buffer":0,"byteOffset":2414500,"byteLength":425992,"byteStride":8,"name":"bufferViewFloatVec2"}],"buffers":[{"uri":"TechNL_map_Textured.bin","byteLength":2840492}],"materials":[{"pbrMetallicRoughness":{"baseColorTexture":{"index":1},"metallicFactor":0.0,"metallicRoughnessTexture":{"index":0}},"occlusionTexture":{"index":0},"name":"map_land_M"},{"pbrMetallicRoughness":{"baseColorTexture":{"index":3},"metallicFactor":0.0,"metallicRoughnessTexture":{"index":2}},"occlusionTexture":{"index":2},"name":"map_nfld_M"},{"pbrMetallicRoughness":{"baseColorTexture":{"index":5},"metallicFactor":0.0,"metallicRoughnessTexture":{"index":4}},"occlusionTexture":{"index":4},"name":"map_water_M"}],"textures":[{"sampler":0,"source":0,"name":"map_land_M_Mixed_AO_1map_land_M_Roughness_10.jpg"},{"sampler":0,"source":1,"name":"map_land_M_Base_color.png"},{"sampler":0,"source":2,"name":"map_nfld_M_Mixed_AO_1map_nfld_M_Roughness_10.jpg"},{"sampler":0,"source":3,"name":"map_nfld_M_Base_color.png"},{"sampler":0,"source":4,"name":"map_water_M_Mixed_AO_1map_water_M_Roughness_10.jpg"},{"sampler":0,"source":5,"name":"map_water_M_Base_color.png"}],"images":[{"uri":"map_land_M_Mixed_AO_1map_land_M_Roughness_10.jpg"},{"uri":"map_land_M_Base_color.png"},{"uri":"map_nfld_M_Mixed_AO_1map_nfld_M_Roughness_10.jpg"},{"uri":"map_nfld_M_Base_color.png"},{"uri":"map_water_M_Mixed_AO_1map_water_M_Roughness_10.jpg"},{"uri":"map_water_M_Base_color.png"}],"samplers":[{"magFilter":9729,"minFilter":9987}]}